o Mesh
v -0.10000000894069672 0.8750000596046448 -0.8750000596046448
v -0.10000000894069672 0.8750000596046448 0.8750000596046448
v 0.10000000894069672 0.8750000596046448 0.8750000596046448
v 0.10000000894069672 0.8750000596046448 -0.8750000596046448
v -0.10000000894069672 -0.8750000596046448 -0.8750000596046448
v -0.10000000894069672 0.8750000596046448 -0.8750000596046448
v 0.10000000894069672 0.8750000596046448 -0.8750000596046448
v 0.10000000894069672 -0.8750000596046448 -0.8750000596046448
v -0.10000000894069672 -0.8750000596046448 0.8750000596046448
v -0.10000000894069672 -0.8750000596046448 -0.8750000596046448
v 0.10000000894069672 -0.8750000596046448 -0.8750000596046448
v 0.10000000894069672 -0.8750000596046448 0.8750000596046448
v -0.10000000894069672 0.8750000596046448 0.8750000596046448
v -0.10000000894069672 -0.8750000596046448 0.8750000596046448
v 0.10000000894069672 -0.8750000596046448 0.8750000596046448
v 0.10000000894069672 0.8750000596046448 0.8750000596046448
v -0.10000000894069672 0.675000011920929 -0.675000011920929
v -0.10000000894069672 0.675000011920929 0.675000011920929
v -0.10000000894069672 0.8750000596046448 0.8750000596046448
v -0.10000000894069672 0.8750000596046448 -0.8750000596046448
v -0.10000000894069672 -0.8750000596046448 0.8750000596046448
v -0.10000000894069672 -0.675000011920929 -0.675000011920929
v -0.10000000894069672 -0.675000011920929 0.675000011920929
v -0.10000000894069672 -0.8750000596046448 -0.8750000596046448
v 0.10000000894069672 0.675000011920929 0.675000011920929
v 0.10000000894069672 0.675000011920929 -0.675000011920929
v 0.10000000894069672 0.8750000596046448 -0.8750000596046448
v 0.10000000894069672 0.8750000596046448 0.8750000596046448
v 0.10000000894069672 0.675000011920929 -0.675000011920929
v 0.10000000894069672 -0.675000011920929 -0.675000011920929
v 0.10000000894069672 -0.8750000596046448 -0.8750000596046448
v 0.10000000894069672 0.8750000596046448 -0.8750000596046448
v 0.10000000894069672 -0.675000011920929 -0.675000011920929
v 0.10000000894069672 -0.675000011920929 0.675000011920929
v 0.10000000894069672 -0.8750000596046448 0.8750000596046448
v 0.10000000894069672 -0.8750000596046448 -0.8750000596046448
v 0.10000000894069672 -0.675000011920929 0.675000011920929
v 0.10000000894069672 0.675000011920929 0.675000011920929
v 0.10000000894069672 0.8750000596046448 0.8750000596046448
v 0.10000000894069672 -0.8750000596046448 0.8750000596046448
v -0.10000000894069672 0.675000011920929 0.675000011920929
v -0.10000000894069672 0.675000011920929 -0.675000011920929
v 0.10000000894069672 0.675000011920929 -0.675000011920929
v 0.10000000894069672 0.675000011920929 0.675000011920929
v -0.10000000894069672 0.675000011920929 -0.675000011920929
v -0.10000000894069672 -0.675000011920929 -0.675000011920929
v 0.10000000894069672 -0.675000011920929 -0.675000011920929
v 0.10000000894069672 0.675000011920929 -0.675000011920929
v -0.10000000894069672 -0.675000011920929 -0.675000011920929
v -0.10000000894069672 -0.675000011920929 0.675000011920929
v 0.10000000894069672 -0.675000011920929 0.675000011920929
v 0.10000000894069672 -0.675000011920929 -0.675000011920929
v -0.10000000894069672 -0.675000011920929 0.675000011920929
v -0.10000000894069672 0.675000011920929 0.675000011920929
v 0.10000000894069672 0.675000011920929 0.675000011920929
v 0.10000000894069672 -0.675000011920929 0.675000011920929

vn 1.2246468525851679e-16 1 1.2246468525851679e-16
vn 1.2246468525851679e-16 1 1.2246468525851679e-16
vn 1.2246468525851679e-16 1 1.2246468525851679e-16
vn 1.2246468525851679e-16 1 1.2246468525851679e-16
vn 1.4997597572211942e-32 1.2246468525851679e-16 -1
vn 1.4997597572211942e-32 1.2246468525851679e-16 -1
vn 1.4997597572211942e-32 1.2246468525851679e-16 -1
vn 1.4997597572211942e-32 1.2246468525851679e-16 -1
vn -1.2246468525851679e-16 -1 -1.2246468525851679e-16
vn -1.2246468525851679e-16 -1 -1.2246468525851679e-16
vn -1.2246468525851679e-16 -1 -1.2246468525851679e-16
vn -1.2246468525851679e-16 -1 -1.2246468525851679e-16
vn -1.4997597572211942e-32 -1.2246468525851679e-16 1
vn -1.4997597572211942e-32 -1.2246468525851679e-16 1
vn -1.4997597572211942e-32 -1.2246468525851679e-16 1
vn -1.4997597572211942e-32 -1.2246468525851679e-16 1
vn -1 1.2246468525851679e-16 0
vn -1 1.2246468525851679e-16 0
vn -1 1.2246468525851679e-16 0
vn -1 1.2246468525851679e-16 0
vn -1 1.2246468525851679e-16 0
vn -1 1.2246468525851679e-16 0
vn -1 1.2246468525851679e-16 0
vn -1 1.2246468525851679e-16 0
vn 1 -1.2246468525851679e-16 0
vn 1 -1.2246468525851679e-16 0
vn 1 -1.2246468525851679e-16 0
vn 1 -1.2246468525851679e-16 0
vn 1 -1.2246468525851679e-16 0
vn 1 -1.2246468525851679e-16 0
vn 1 -1.2246468525851679e-16 0
vn 1 -1.2246468525851679e-16 0
vn 1 -1.2246468525851679e-16 0
vn 1 -1.2246468525851679e-16 0
vn 1 -1.2246468525851679e-16 0
vn 1 -1.2246468525851679e-16 0
vn 1 -1.2246468525851679e-16 0
vn 1 -1.2246468525851679e-16 0
vn 1 -1.2246468525851679e-16 0
vn 1 -1.2246468525851679e-16 0
vn -1.2246468525851679e-16 -1 -1.2246468525851679e-16
vn -1.2246468525851679e-16 -1 -1.2246468525851679e-16
vn -1.2246468525851679e-16 -1 -1.2246468525851679e-16
vn -1.2246468525851679e-16 -1 -1.2246468525851679e-16
vn -1.4997597572211942e-32 -1.2246468525851679e-16 1
vn -1.4997597572211942e-32 -1.2246468525851679e-16 1
vn -1.4997597572211942e-32 -1.2246468525851679e-16 1
vn -1.4997597572211942e-32 -1.2246468525851679e-16 1
vn 1.2246468525851679e-16 1 1.2246468525851679e-16
vn 1.2246468525851679e-16 1 1.2246468525851679e-16
vn 1.2246468525851679e-16 1 1.2246468525851679e-16
vn 1.2246468525851679e-16 1 1.2246468525851679e-16
vn 1.4997597572211942e-32 1.2246468525851679e-16 -1
vn 1.4997597572211942e-32 1.2246468525851679e-16 -1
vn 1.4997597572211942e-32 1.2246468525851679e-16 -1
vn 1.4997597572211942e-32 1.2246468525851679e-16 -1

vt 0 0
vt 0 1
vt 0 1
vt 0 0
vt 1 0
vt 0 0
vt 0 0
vt 1 0
vt 1 1
vt 1 0
vt 1 0
vt 1 1
vt 0 1
vt 1 1
vt 1 1
vt 0 1
vt 0.11428572237491608 0.1142856627702713
vt 0.11428572237491608 0.8857142925262451
vt 0 1
vt 0 0
vt 1 1
vt 0.8857143521308899 0.1142856627702713
vt 0.8857143521308899 0.8857142925262451
vt 1 0
vt 1 0
vt 1 1
vt 0 1
vt 0 0
vt 1 0
vt 1 1
vt 0 1
vt 0 0
vt 1 0
vt 1 1
vt 0 1
vt 0 0
vt 1 0
vt 1 1
vt 0 1
vt 0 0
vt 0.11428572237491608 0.8857142925262451
vt 0.11428572237491608 0.1142856627702713
vt 0.11428572237491608 0.1142856627702713
vt 0.11428572237491608 0.8857142925262451
vt 0.11428572237491608 0.1142856627702713
vt 0.8857143521308899 0.1142856627702713
vt 0.8857143521308899 0.1142856627702713
vt 0.11428572237491608 0.1142856627702713
vt 0.8857143521308899 0.1142856627702713
vt 0.8857143521308899 0.8857142925262451
vt 0.8857143521308899 0.8857142925262451
vt 0.8857143521308899 0.1142856627702713
vt 0.8857143521308899 0.8857142925262451
vt 0.11428572237491608 0.8857142925262451
vt 0.11428572237491608 0.8857142925262451
vt 0.8857143521308899 0.8857142925262451

f 1/1/1 2/2/2 3/3/3
f 4/4/4 1/1/1 3/3/3
f 5/5/5 6/6/6 7/7/7
f 8/8/8 5/5/5 7/7/7
f 9/9/9 10/10/10 11/11/11
f 12/12/12 9/9/9 11/11/11
f 13/13/13 14/14/14 15/15/15
f 16/16/16 13/13/13 15/15/15
f 17/17/17 18/18/18 19/19/19
f 20/20/20 17/17/17 19/19/19
f 19/19/19 18/18/18 21/21/21
f 22/22/22 17/17/17 20/20/20
f 18/18/18 23/23/23 21/21/21
f 24/24/24 22/22/22 20/20/20
f 23/23/23 22/22/22 24/24/24
f 21/21/21 23/23/23 24/24/24
f 25/25/25 26/26/26 27/27/27
f 28/28/28 25/25/25 27/27/27
f 29/29/29 30/30/30 31/31/31
f 32/32/32 29/29/29 31/31/31
f 33/33/33 34/34/34 35/35/35
f 36/36/36 33/33/33 35/35/35
f 37/37/37 38/38/38 39/39/39
f 40/40/40 37/37/37 39/39/39
f 41/41/41 42/42/42 43/43/43
f 44/44/44 41/41/41 43/43/43
f 45/45/45 46/46/46 47/47/47
f 48/48/48 45/45/45 47/47/47
f 49/49/49 50/50/50 51/51/51
f 52/52/52 49/49/49 51/51/51
f 53/53/53 54/54/54 55/55/55
f 56/56/56 53/53/53 55/55/55